<svg xmlns="http://www.w3.org/2000/svg" viewBox="0 0 512 512"><defs><clipPath clipPathUnits="userSpaceOnUse" id="a"><rect height="342.674" ry="21.832" width="342.674" x="275.565" y="396.769" fill="#005ad2" fill-opacity="1" stroke="none" class="fill-005ad2"></rect></clipPath></defs><g transform="translate(0 -540.362)"><rect height="506.557" ry="32.273" width="506.557" x="3.198" y="544.982" fill="#928e9b" fill-opacity="1" stroke="none" class="fill-db534b"></rect><g clip-path="url(#a)" transform="matrix(1.43403 0 0 1.39412 -384.071 20.667)" opacity=".48961247" fill="#928e9b" fill-opacity=".05882353" class="fill-000000"><g fill="#928e9b" fill-opacity=".05882353" stroke="none" class="fill-000000"><path d="M561.538 561.016c0 61.07-50.798 110.577-113.461 110.577l707.107 707.107c62.663 0 113.461-49.507 113.461-110.577z" fill="#928e9b" fill-opacity=".05882353" class="fill-000000"></path><path d="M448.077 671.593c-31.86 0-60.653-12.798-81.262-33.407l707.107 707.107c20.608 20.609 49.402 33.407 81.262 33.407z" fill="#928e9b" fill-opacity=".05882353" class="fill-000000"></path><path d="M366.815 638.186c-19.925-19.925-32.2-47.15-32.2-77.17l707.107 707.107c0 30.02 12.275 57.245 32.2 77.17zM334.615 561.016c0-61.07 50.799-110.577 113.462-110.577l707.107 707.107c-62.663 0-113.462 49.507-113.462 110.577z" fill="#928e9b" fill-opacity=".05882353" class="fill-000000"></path><path d="M448.077 450.44c31.86 0 60.653 12.797 81.262 33.406l707.107 707.107c-20.609-20.61-49.402-33.407-81.262-33.407z" fill="#928e9b" fill-opacity=".05882353" class="fill-000000"></path><path d="M529.34 483.846c19.924 19.925 32.198 47.15 32.198 77.17l707.107 707.107c0-30.02-12.274-57.246-32.2-77.17z" fill="#928e9b" fill-opacity=".05882353" class="fill-000000"></path></g><path d="M561.538 561.016c0 61.07-50.798 110.577-113.461 110.577s-113.462-49.507-113.462-110.577 50.799-110.577 113.462-110.577c62.663 0 113.461 49.507 113.461 110.577z" fill="#928e9b" fill-opacity=".05882353" stroke="none" class="fill-000000"></path></g><path d="M112.039 651.223h290.533a36.317 36.317 0 0 1 36.316 36.317v217.9a36.317 36.317 0 0 1-36.316 36.316H112.039c-20.156 0-36.317-16.342-36.317-36.316v-217.9a36.191 36.191 0 0 1 36.317-36.317m145.266 127.108 145.267-90.791H112.039l145.266 90.791M112.04 905.44h290.533V730.575l-145.267 90.61-145.266-90.61V905.44z" fill="#161718" class="fill-ffffff"></path></g></svg>